<?xml version="1.0" encoding="UTF-8" standalone="no"?>
<!DOCTYPE svg PUBLIC "-//W3C//DTD SVG 1.1//EN" "http://www.w3.org/Graphics/SVG/1.1/DTD/svg11.dtd">
<svg width="100%" height="100%" viewBox="0 0 382 308" version="1.1" xmlns="http://www.w3.org/2000/svg" xmlns:xlink="http://www.w3.org/1999/xlink" xml:space="preserve" xmlns:serif="http://www.serif.com/" style="fill-rule:evenodd;clip-rule:evenodd;stroke-linejoin:round;stroke-miterlimit:2;">
    <g transform="matrix(0.836581,0,0,0.836581,489.292,-1056.51)">
        <path d="M-237.415,1365.74L-343.006,1337.94L-327.12,1262.89L-129.419,1327.24L-146.976,1409.51L-371.65,1473.83L-355.043,1393.57L-237.415,1365.74ZM-354.366,1394.23L-370.603,1472.7L-147.656,1408.87L-130.348,1327.77L-326.524,1263.92L-342.069,1337.36L-234.128,1365.79L-354.366,1394.23ZM-353.43,1527.47L-326.582,1500.63L-272.886,1554.32L-299.734,1581.17C-329.97,1611.41 -371.734,1630.11 -417.831,1630.11C-510.023,1630.11 -584.871,1555.27 -584.871,1463.07C-584.871,1370.88 -510.023,1296.03 -417.831,1296.03L-379.862,1296.03L-379.862,1371.97L-417.831,1371.97C-468.111,1371.97 -508.933,1412.79 -508.933,1463.07C-508.933,1513.35 -468.111,1554.17 -417.831,1554.17C-392.692,1554.17 -369.92,1543.96 -353.43,1527.47ZM-352.867,1528.04C-369.501,1544.67 -392.472,1554.97 -417.831,1554.97C-468.551,1554.97 -509.73,1513.79 -509.73,1463.07C-509.73,1412.35 -468.551,1371.17 -417.831,1371.17L-380.659,1371.17L-380.659,1296.83L-417.831,1296.83C-509.583,1296.83 -584.074,1371.32 -584.074,1463.07C-584.074,1554.83 -509.583,1629.32 -417.831,1629.32C-371.954,1629.32 -330.39,1610.7 -300.297,1580.61L-274.013,1554.32L-326.582,1501.75L-352.867,1528.04Z"/>
    </g>
</svg>
